<mxfile host="app.diagrams.net" agent="Mozilla/5.0 (Windows NT 10.0; Win64; x64) AppleWebKit/537.36 (KHTML, like Gecko) Chrome/127.0.0.0 Safari/537.36" version="24.7.7">
  <diagram id="R2lEEEUBdFMjLlhIrx00" name="Page-1">
    <mxGraphModel dx="1323" dy="1550" grid="1" gridSize="11" guides="1" tooltips="1" connect="1" arrows="1" fold="1" page="1" pageScale="1" pageWidth="1400" pageHeight="850" math="0" shadow="0" extFonts="Permanent Marker^https://fonts.googleapis.com/css?family=Permanent+Marker">
      <root>
        <mxCell id="0" />
        <mxCell id="1" parent="0" />
        <mxCell id="nKBKC8BC90IeA41H-Ije-92" style="edgeStyle=orthogonalEdgeStyle;rounded=0;orthogonalLoop=1;jettySize=auto;html=1;exitX=0;exitY=0.75;exitDx=0;exitDy=0;strokeColor=#788AA3;fontColor=#46495D;elbow=vertical;fillColor=#B2C9AB;" edge="1" parent="1" source="nKBKC8BC90IeA41H-Ije-1" target="nKBKC8BC90IeA41H-Ije-91">
          <mxGeometry relative="1" as="geometry">
            <mxPoint x="814" y="-352" as="targetPoint" />
          </mxGeometry>
        </mxCell>
        <mxCell id="nKBKC8BC90IeA41H-Ije-106" value="one" style="edgeLabel;html=1;align=center;verticalAlign=middle;resizable=0;points=[];strokeColor=#788AA3;fontColor=#46495D;fillColor=#B2C9AB;" vertex="1" connectable="0" parent="nKBKC8BC90IeA41H-Ije-92">
          <mxGeometry x="-0.3081" relative="1" as="geometry">
            <mxPoint x="1" as="offset" />
          </mxGeometry>
        </mxCell>
        <mxCell id="nKBKC8BC90IeA41H-Ije-1" value="customer" style="whiteSpace=wrap;html=1;align=center;rounded=1;labelBackgroundColor=none;fillColor=#B2C9AB;strokeColor=#788AA3;fontColor=#46495D;" vertex="1" parent="1">
          <mxGeometry x="1089" y="-751" width="120" height="40" as="geometry" />
        </mxCell>
        <mxCell id="nKBKC8BC90IeA41H-Ije-52" style="edgeStyle=orthogonalEdgeStyle;rounded=0;orthogonalLoop=1;jettySize=auto;html=1;exitX=1;exitY=0.75;exitDx=0;exitDy=0;entryX=0;entryY=0.5;entryDx=0;entryDy=0;strokeColor=#788AA3;fontColor=#46495D;elbow=vertical;fillColor=#B2C9AB;" edge="1" parent="1" source="nKBKC8BC90IeA41H-Ije-2" target="nKBKC8BC90IeA41H-Ije-16">
          <mxGeometry relative="1" as="geometry" />
        </mxCell>
        <mxCell id="nKBKC8BC90IeA41H-Ije-2" value="product" style="whiteSpace=wrap;html=1;align=center;rounded=1;labelBackgroundColor=none;fillColor=#B2C9AB;strokeColor=#788AA3;fontColor=#46495D;" vertex="1" parent="1">
          <mxGeometry x="52" y="-603" width="120" height="48" as="geometry" />
        </mxCell>
        <mxCell id="nKBKC8BC90IeA41H-Ije-3" value="product_category" style="whiteSpace=wrap;html=1;align=center;rounded=1;labelBackgroundColor=none;fillColor=#B2C9AB;strokeColor=#788AA3;fontColor=#46495D;arcSize=0;" vertex="1" parent="1">
          <mxGeometry x="165" y="-766" width="120" height="40" as="geometry" />
        </mxCell>
        <mxCell id="nKBKC8BC90IeA41H-Ije-78" style="edgeStyle=orthogonalEdgeStyle;rounded=0;orthogonalLoop=1;jettySize=auto;html=1;exitX=1;exitY=0.5;exitDx=0;exitDy=0;entryX=0.5;entryY=0;entryDx=0;entryDy=0;strokeColor=#788AA3;fontColor=#46495D;elbow=vertical;fillColor=#B2C9AB;" edge="1" parent="1" source="nKBKC8BC90IeA41H-Ije-5" target="nKBKC8BC90IeA41H-Ije-77">
          <mxGeometry relative="1" as="geometry" />
        </mxCell>
        <mxCell id="nKBKC8BC90IeA41H-Ije-5" value="order" style="whiteSpace=wrap;html=1;align=center;rounded=1;labelBackgroundColor=none;fillColor=#B2C9AB;strokeColor=#788AA3;fontColor=#46495D;" vertex="1" parent="1">
          <mxGeometry x="1139.5" y="-462" width="120" height="40" as="geometry" />
        </mxCell>
        <mxCell id="nKBKC8BC90IeA41H-Ije-56" style="edgeStyle=orthogonalEdgeStyle;rounded=0;orthogonalLoop=1;jettySize=auto;html=1;exitX=1;exitY=0.5;exitDx=0;exitDy=0;strokeColor=#788AA3;fontColor=#46495D;elbow=vertical;fillColor=#B2C9AB;" edge="1" parent="1" source="nKBKC8BC90IeA41H-Ije-6" target="nKBKC8BC90IeA41H-Ije-32">
          <mxGeometry relative="1" as="geometry" />
        </mxCell>
        <mxCell id="nKBKC8BC90IeA41H-Ije-6" value="address" style="whiteSpace=wrap;html=1;align=center;rounded=1;labelBackgroundColor=none;fillColor=#B2C9AB;strokeColor=#788AA3;fontColor=#46495D;" vertex="1" parent="1">
          <mxGeometry x="855" y="-227" width="143" height="40" as="geometry" />
        </mxCell>
        <mxCell id="nKBKC8BC90IeA41H-Ije-7" value="payments" style="whiteSpace=wrap;html=1;align=center;rounded=1;labelBackgroundColor=none;fillColor=#B2C9AB;strokeColor=#788AA3;fontColor=#46495D;" vertex="1" parent="1">
          <mxGeometry x="175" y="-221" width="120" height="40" as="geometry" />
        </mxCell>
        <mxCell id="nKBKC8BC90IeA41H-Ije-42" style="edgeStyle=orthogonalEdgeStyle;rounded=0;orthogonalLoop=1;jettySize=auto;html=1;exitX=0.5;exitY=1;exitDx=0;exitDy=0;entryX=0;entryY=0.5;entryDx=0;entryDy=0;strokeColor=#788AA3;fontColor=#46495D;elbow=vertical;fillColor=#B2C9AB;" edge="1" parent="1" source="nKBKC8BC90IeA41H-Ije-9" target="nKBKC8BC90IeA41H-Ije-1">
          <mxGeometry relative="1" as="geometry" />
        </mxCell>
        <mxCell id="nKBKC8BC90IeA41H-Ije-9" value="&lt;u&gt;customer_id&lt;/u&gt;" style="ellipse;whiteSpace=wrap;html=1;align=center;rounded=1;labelBackgroundColor=none;fillColor=#B2C9AB;strokeColor=#788AA3;fontColor=#46495D;" vertex="1" parent="1">
          <mxGeometry x="1001" y="-823" width="100" height="40" as="geometry" />
        </mxCell>
        <mxCell id="nKBKC8BC90IeA41H-Ije-83" style="edgeStyle=orthogonalEdgeStyle;rounded=0;orthogonalLoop=1;jettySize=auto;html=1;exitX=0.5;exitY=0;exitDx=0;exitDy=0;entryX=0.5;entryY=1;entryDx=0;entryDy=0;strokeColor=#788AA3;fontColor=#46495D;elbow=vertical;fillColor=#B2C9AB;" edge="1" parent="1" source="nKBKC8BC90IeA41H-Ije-10" target="nKBKC8BC90IeA41H-Ije-1">
          <mxGeometry relative="1" as="geometry" />
        </mxCell>
        <mxCell id="nKBKC8BC90IeA41H-Ije-10" value="customer_name" style="ellipse;whiteSpace=wrap;html=1;align=center;rounded=1;labelBackgroundColor=none;fillColor=#B2C9AB;strokeColor=#788AA3;fontColor=#46495D;" vertex="1" parent="1">
          <mxGeometry x="1133" y="-649" width="100" height="40" as="geometry" />
        </mxCell>
        <mxCell id="nKBKC8BC90IeA41H-Ije-85" style="edgeStyle=orthogonalEdgeStyle;rounded=0;orthogonalLoop=1;jettySize=auto;html=1;exitX=0.5;exitY=1;exitDx=0;exitDy=0;entryX=1;entryY=0.5;entryDx=0;entryDy=0;strokeColor=#788AA3;fontColor=#46495D;elbow=vertical;fillColor=#B2C9AB;" edge="1" parent="1" source="nKBKC8BC90IeA41H-Ije-11" target="nKBKC8BC90IeA41H-Ije-1">
          <mxGeometry relative="1" as="geometry" />
        </mxCell>
        <mxCell id="nKBKC8BC90IeA41H-Ije-11" value="mobile" style="ellipse;whiteSpace=wrap;html=1;align=center;rounded=1;labelBackgroundColor=none;fillColor=#B2C9AB;strokeColor=#788AA3;fontColor=#46495D;" vertex="1" parent="1">
          <mxGeometry x="1276" y="-821" width="100" height="44" as="geometry" />
        </mxCell>
        <mxCell id="nKBKC8BC90IeA41H-Ije-86" style="edgeStyle=orthogonalEdgeStyle;rounded=0;orthogonalLoop=1;jettySize=auto;html=1;exitX=0.5;exitY=1;exitDx=0;exitDy=0;entryX=0.5;entryY=0;entryDx=0;entryDy=0;strokeColor=#788AA3;fontColor=#46495D;elbow=vertical;fillColor=#B2C9AB;" edge="1" parent="1" source="nKBKC8BC90IeA41H-Ije-12" target="nKBKC8BC90IeA41H-Ije-1">
          <mxGeometry relative="1" as="geometry" />
        </mxCell>
        <mxCell id="nKBKC8BC90IeA41H-Ije-12" value="email" style="ellipse;whiteSpace=wrap;html=1;align=center;rounded=1;labelBackgroundColor=none;fillColor=#B2C9AB;strokeColor=#788AA3;fontColor=#46495D;" vertex="1" parent="1">
          <mxGeometry x="1144" y="-825" width="100" height="44" as="geometry" />
        </mxCell>
        <mxCell id="nKBKC8BC90IeA41H-Ije-73" style="edgeStyle=orthogonalEdgeStyle;rounded=0;orthogonalLoop=1;jettySize=auto;html=1;exitX=0;exitY=0.5;exitDx=0;exitDy=0;entryX=0.5;entryY=0;entryDx=0;entryDy=0;strokeColor=#788AA3;fontColor=#46495D;elbow=vertical;fillColor=#B2C9AB;" edge="1" parent="1" source="nKBKC8BC90IeA41H-Ije-13" target="nKBKC8BC90IeA41H-Ije-2">
          <mxGeometry relative="1" as="geometry" />
        </mxCell>
        <mxCell id="nKBKC8BC90IeA41H-Ije-13" value="product_name" style="ellipse;whiteSpace=wrap;html=1;align=center;rounded=1;labelBackgroundColor=none;fillColor=#B2C9AB;strokeColor=#788AA3;fontColor=#46495D;" vertex="1" parent="1">
          <mxGeometry x="184" y="-682" width="100" height="40" as="geometry" />
        </mxCell>
        <mxCell id="nKBKC8BC90IeA41H-Ije-54" style="edgeStyle=orthogonalEdgeStyle;rounded=0;orthogonalLoop=1;jettySize=auto;html=1;exitX=0.5;exitY=0;exitDx=0;exitDy=0;entryX=0.5;entryY=1;entryDx=0;entryDy=0;strokeColor=#788AA3;fontColor=#46495D;elbow=vertical;fillColor=#B2C9AB;" edge="1" parent="1" source="nKBKC8BC90IeA41H-Ije-15" target="nKBKC8BC90IeA41H-Ije-2">
          <mxGeometry relative="1" as="geometry" />
        </mxCell>
        <mxCell id="nKBKC8BC90IeA41H-Ije-15" value="&lt;u&gt;description&lt;/u&gt;" style="ellipse;whiteSpace=wrap;html=1;align=center;rounded=1;labelBackgroundColor=none;fillColor=#B2C9AB;strokeColor=#788AA3;fontColor=#46495D;" vertex="1" parent="1">
          <mxGeometry x="33" y="-473" width="100" height="40" as="geometry" />
        </mxCell>
        <mxCell id="nKBKC8BC90IeA41H-Ije-96" style="edgeStyle=orthogonalEdgeStyle;rounded=0;orthogonalLoop=1;jettySize=auto;html=1;exitX=1;exitY=0.5;exitDx=0;exitDy=0;entryX=0.5;entryY=1;entryDx=0;entryDy=0;strokeColor=#788AA3;fontColor=#46495D;elbow=vertical;fillColor=#B2C9AB;" edge="1" parent="1" source="nKBKC8BC90IeA41H-Ije-16" target="nKBKC8BC90IeA41H-Ije-94">
          <mxGeometry relative="1" as="geometry" />
        </mxCell>
        <mxCell id="nKBKC8BC90IeA41H-Ije-116" value="one" style="edgeLabel;html=1;align=center;verticalAlign=middle;resizable=0;points=[];strokeColor=#788AA3;fontColor=#46495D;fillColor=#B2C9AB;" vertex="1" connectable="0" parent="nKBKC8BC90IeA41H-Ije-96">
          <mxGeometry x="0.7025" y="-3" relative="1" as="geometry">
            <mxPoint as="offset" />
          </mxGeometry>
        </mxCell>
        <mxCell id="nKBKC8BC90IeA41H-Ije-100" style="edgeStyle=orthogonalEdgeStyle;rounded=0;orthogonalLoop=1;jettySize=auto;html=1;exitX=1;exitY=0.5;exitDx=0;exitDy=0;entryX=0;entryY=0.5;entryDx=0;entryDy=0;strokeColor=#788AA3;fontColor=#46495D;elbow=vertical;fillColor=#B2C9AB;" edge="1" parent="1" source="nKBKC8BC90IeA41H-Ije-16" target="nKBKC8BC90IeA41H-Ije-97">
          <mxGeometry relative="1" as="geometry">
            <Array as="points">
              <mxPoint x="572" y="-508" />
              <mxPoint x="572" y="-619" />
            </Array>
          </mxGeometry>
        </mxCell>
        <mxCell id="nKBKC8BC90IeA41H-Ije-112" value="one" style="edgeLabel;html=1;align=center;verticalAlign=middle;resizable=0;points=[];strokeColor=#788AA3;fontColor=#46495D;fillColor=#B2C9AB;" vertex="1" connectable="0" parent="nKBKC8BC90IeA41H-Ije-100">
          <mxGeometry x="0.1374" relative="1" as="geometry">
            <mxPoint as="offset" />
          </mxGeometry>
        </mxCell>
        <mxCell id="nKBKC8BC90IeA41H-Ije-16" value="&lt;u&gt;product_id&lt;/u&gt;" style="ellipse;whiteSpace=wrap;html=1;align=center;rounded=1;labelBackgroundColor=none;fillColor=#B2C9AB;strokeColor=#788AA3;fontColor=#46495D;" vertex="1" parent="1">
          <mxGeometry x="195" y="-528" width="100" height="40" as="geometry" />
        </mxCell>
        <mxCell id="nKBKC8BC90IeA41H-Ije-40" style="edgeStyle=elbowEdgeStyle;rounded=0;orthogonalLoop=1;jettySize=auto;elbow=vertical;html=1;exitX=0.5;exitY=1;exitDx=0;exitDy=0;strokeColor=#788AA3;fontColor=#46495D;fillColor=#B2C9AB;" edge="1" parent="1" source="nKBKC8BC90IeA41H-Ije-17">
          <mxGeometry relative="1" as="geometry">
            <mxPoint x="220" y="-766" as="targetPoint" />
          </mxGeometry>
        </mxCell>
        <mxCell id="nKBKC8BC90IeA41H-Ije-17" value="category_name" style="ellipse;whiteSpace=wrap;html=1;align=center;rounded=1;labelBackgroundColor=none;fillColor=#B2C9AB;strokeColor=#788AA3;fontColor=#46495D;" vertex="1" parent="1">
          <mxGeometry x="242" y="-840" width="100" height="33" as="geometry" />
        </mxCell>
        <mxCell id="nKBKC8BC90IeA41H-Ije-39" style="edgeStyle=elbowEdgeStyle;rounded=0;orthogonalLoop=1;jettySize=auto;elbow=vertical;html=1;exitX=1;exitY=0.5;exitDx=0;exitDy=0;entryX=0.5;entryY=0;entryDx=0;entryDy=0;strokeColor=#788AA3;fontColor=#46495D;fillColor=#B2C9AB;" edge="1" parent="1" source="nKBKC8BC90IeA41H-Ije-18" target="nKBKC8BC90IeA41H-Ije-3">
          <mxGeometry relative="1" as="geometry" />
        </mxCell>
        <mxCell id="nKBKC8BC90IeA41H-Ije-18" value="&lt;u&gt;category_id&lt;/u&gt;" style="ellipse;whiteSpace=wrap;html=1;align=center;rounded=1;labelBackgroundColor=none;fillColor=#B2C9AB;strokeColor=#788AA3;fontColor=#46495D;" vertex="1" parent="1">
          <mxGeometry x="43" y="-832" width="100" height="40" as="geometry" />
        </mxCell>
        <mxCell id="nKBKC8BC90IeA41H-Ije-46" style="edgeStyle=orthogonalEdgeStyle;rounded=0;orthogonalLoop=1;jettySize=auto;html=1;exitX=1;exitY=0.5;exitDx=0;exitDy=0;entryX=0.5;entryY=0;entryDx=0;entryDy=0;strokeColor=#788AA3;fontColor=#46495D;elbow=vertical;fillColor=#B2C9AB;" edge="1" parent="1" target="nKBKC8BC90IeA41H-Ije-5">
          <mxGeometry relative="1" as="geometry">
            <mxPoint x="1095.5" y="-508" as="sourcePoint" />
          </mxGeometry>
        </mxCell>
        <mxCell id="nKBKC8BC90IeA41H-Ije-120" style="edgeStyle=orthogonalEdgeStyle;rounded=0;orthogonalLoop=1;jettySize=auto;html=1;exitX=0;exitY=0.5;exitDx=0;exitDy=0;entryX=1;entryY=0.5;entryDx=0;entryDy=0;strokeColor=#788AA3;fontColor=#46495D;elbow=vertical;fillColor=#B2C9AB;" edge="1" parent="1" source="nKBKC8BC90IeA41H-Ije-19" target="nKBKC8BC90IeA41H-Ije-101">
          <mxGeometry relative="1" as="geometry">
            <Array as="points">
              <mxPoint x="638" y="-508" />
              <mxPoint x="638" y="-425" />
            </Array>
          </mxGeometry>
        </mxCell>
        <mxCell id="nKBKC8BC90IeA41H-Ije-121" value="one" style="edgeLabel;html=1;align=center;verticalAlign=middle;resizable=0;points=[];strokeColor=#788AA3;fontColor=#46495D;fillColor=#B2C9AB;" vertex="1" connectable="0" parent="nKBKC8BC90IeA41H-Ije-120">
          <mxGeometry x="0.4247" y="1" relative="1" as="geometry">
            <mxPoint as="offset" />
          </mxGeometry>
        </mxCell>
        <mxCell id="nKBKC8BC90IeA41H-Ije-19" value="&lt;u&gt;order_id&lt;/u&gt;" style="ellipse;whiteSpace=wrap;html=1;align=center;rounded=1;labelBackgroundColor=none;fillColor=#B2C9AB;strokeColor=#788AA3;fontColor=#46495D;" vertex="1" parent="1">
          <mxGeometry x="1023" y="-528" width="100" height="40" as="geometry" />
        </mxCell>
        <mxCell id="nKBKC8BC90IeA41H-Ije-47" style="edgeStyle=orthogonalEdgeStyle;rounded=0;orthogonalLoop=1;jettySize=auto;html=1;exitX=1;exitY=0.5;exitDx=0;exitDy=0;entryX=0;entryY=0.75;entryDx=0;entryDy=0;strokeColor=#788AA3;fontColor=#46495D;elbow=vertical;fillColor=#B2C9AB;" edge="1" parent="1" target="nKBKC8BC90IeA41H-Ije-5">
          <mxGeometry relative="1" as="geometry">
            <mxPoint x="1095.5" y="-453" as="sourcePoint" />
          </mxGeometry>
        </mxCell>
        <mxCell id="nKBKC8BC90IeA41H-Ije-20" value="product_id" style="ellipse;whiteSpace=wrap;html=1;align=center;rounded=1;labelBackgroundColor=none;fillColor=#B2C9AB;strokeColor=#788AA3;fontColor=#46495D;" vertex="1" parent="1">
          <mxGeometry x="1023" y="-473" width="100" height="40" as="geometry" />
        </mxCell>
        <mxCell id="nKBKC8BC90IeA41H-Ije-48" style="edgeStyle=orthogonalEdgeStyle;rounded=0;orthogonalLoop=1;jettySize=auto;html=1;exitX=1;exitY=0.5;exitDx=0;exitDy=0;entryX=0.5;entryY=1;entryDx=0;entryDy=0;strokeColor=#788AA3;fontColor=#46495D;elbow=vertical;fillColor=#B2C9AB;" edge="1" parent="1" target="nKBKC8BC90IeA41H-Ije-5">
          <mxGeometry relative="1" as="geometry">
            <mxPoint x="1095.5" y="-395" as="sourcePoint" />
          </mxGeometry>
        </mxCell>
        <mxCell id="nKBKC8BC90IeA41H-Ije-21" value="order_date" style="ellipse;whiteSpace=wrap;html=1;align=center;rounded=1;labelBackgroundColor=none;fillColor=#B2C9AB;strokeColor=#788AA3;fontColor=#46495D;" vertex="1" parent="1">
          <mxGeometry x="1023" y="-415" width="100" height="40" as="geometry" />
        </mxCell>
        <mxCell id="nKBKC8BC90IeA41H-Ije-66" style="edgeStyle=orthogonalEdgeStyle;rounded=0;orthogonalLoop=1;jettySize=auto;html=1;exitX=1;exitY=0.5;exitDx=0;exitDy=0;entryX=0.5;entryY=0;entryDx=0;entryDy=0;strokeColor=#788AA3;fontColor=#46495D;elbow=vertical;fillColor=#B2C9AB;" edge="1" parent="1" source="nKBKC8BC90IeA41H-Ije-25" target="nKBKC8BC90IeA41H-Ije-7">
          <mxGeometry relative="1" as="geometry" />
        </mxCell>
        <mxCell id="nKBKC8BC90IeA41H-Ije-25" value="&lt;u&gt;payment_id&lt;/u&gt;" style="ellipse;whiteSpace=wrap;html=1;align=center;rounded=1;labelBackgroundColor=none;fillColor=#B2C9AB;strokeColor=#788AA3;fontColor=#46495D;" vertex="1" parent="1">
          <mxGeometry x="18" y="-276" width="100" height="40" as="geometry" />
        </mxCell>
        <mxCell id="nKBKC8BC90IeA41H-Ije-67" style="edgeStyle=orthogonalEdgeStyle;rounded=0;orthogonalLoop=1;jettySize=auto;html=1;exitX=1;exitY=0.5;exitDx=0;exitDy=0;strokeColor=#788AA3;fontColor=#46495D;elbow=vertical;fillColor=#B2C9AB;" edge="1" parent="1" source="nKBKC8BC90IeA41H-Ije-26">
          <mxGeometry relative="1" as="geometry">
            <mxPoint x="173" y="-199" as="targetPoint" />
          </mxGeometry>
        </mxCell>
        <mxCell id="nKBKC8BC90IeA41H-Ije-26" value="method" style="ellipse;whiteSpace=wrap;html=1;align=center;rounded=1;labelBackgroundColor=none;fillColor=#B2C9AB;strokeColor=#788AA3;fontColor=#46495D;" vertex="1" parent="1">
          <mxGeometry x="18" y="-199" width="100" height="40" as="geometry" />
        </mxCell>
        <mxCell id="nKBKC8BC90IeA41H-Ije-68" style="edgeStyle=orthogonalEdgeStyle;rounded=0;orthogonalLoop=1;jettySize=auto;html=1;exitX=1;exitY=0.5;exitDx=0;exitDy=0;entryX=0.25;entryY=1;entryDx=0;entryDy=0;strokeColor=#788AA3;fontColor=#46495D;elbow=vertical;fillColor=#B2C9AB;" edge="1" parent="1" source="nKBKC8BC90IeA41H-Ije-27" target="nKBKC8BC90IeA41H-Ije-7">
          <mxGeometry relative="1" as="geometry" />
        </mxCell>
        <mxCell id="nKBKC8BC90IeA41H-Ije-27" value="amount" style="ellipse;whiteSpace=wrap;html=1;align=center;rounded=1;labelBackgroundColor=none;fillColor=#B2C9AB;strokeColor=#788AA3;fontColor=#46495D;" vertex="1" parent="1">
          <mxGeometry x="18" y="-122" width="100" height="40" as="geometry" />
        </mxCell>
        <mxCell id="nKBKC8BC90IeA41H-Ije-69" style="edgeStyle=orthogonalEdgeStyle;rounded=0;orthogonalLoop=1;jettySize=auto;html=1;exitX=0.5;exitY=0;exitDx=0;exitDy=0;entryX=1;entryY=0.75;entryDx=0;entryDy=0;strokeColor=#788AA3;fontColor=#46495D;elbow=vertical;fillColor=#B2C9AB;" edge="1" parent="1" source="nKBKC8BC90IeA41H-Ije-28" target="nKBKC8BC90IeA41H-Ije-7">
          <mxGeometry relative="1" as="geometry" />
        </mxCell>
        <mxCell id="nKBKC8BC90IeA41H-Ije-28" value="mode" style="ellipse;whiteSpace=wrap;html=1;align=center;rounded=1;labelBackgroundColor=none;fillColor=#B2C9AB;strokeColor=#788AA3;fontColor=#46495D;" vertex="1" parent="1">
          <mxGeometry x="228" y="-111" width="100" height="40" as="geometry" />
        </mxCell>
        <mxCell id="nKBKC8BC90IeA41H-Ije-65" style="edgeStyle=orthogonalEdgeStyle;rounded=0;orthogonalLoop=1;jettySize=auto;html=1;exitX=1;exitY=0.5;exitDx=0;exitDy=0;entryX=0.5;entryY=1;entryDx=0;entryDy=0;strokeColor=#788AA3;fontColor=#46495D;elbow=vertical;fillColor=#B2C9AB;" edge="1" parent="1">
          <mxGeometry relative="1" as="geometry">
            <mxPoint x="792" y="-55" as="sourcePoint" />
            <mxPoint x="885" y="-185" as="targetPoint" />
          </mxGeometry>
        </mxCell>
        <mxCell id="nKBKC8BC90IeA41H-Ije-29" value="&lt;u&gt;address_id&lt;/u&gt;" style="ellipse;whiteSpace=wrap;html=1;align=center;rounded=1;labelBackgroundColor=none;fillColor=#B2C9AB;strokeColor=#788AA3;fontColor=#46495D;" vertex="1" parent="1">
          <mxGeometry x="715" y="-53" width="99" height="40" as="geometry" />
        </mxCell>
        <mxCell id="nKBKC8BC90IeA41H-Ije-63" style="edgeStyle=orthogonalEdgeStyle;rounded=0;orthogonalLoop=1;jettySize=auto;html=1;exitX=0.5;exitY=0;exitDx=0;exitDy=0;entryX=0.5;entryY=1;entryDx=0;entryDy=0;strokeColor=#788AA3;fontColor=#46495D;elbow=vertical;fillColor=#B2C9AB;" edge="1" parent="1" source="nKBKC8BC90IeA41H-Ije-30" target="nKBKC8BC90IeA41H-Ije-6">
          <mxGeometry relative="1" as="geometry" />
        </mxCell>
        <mxCell id="nKBKC8BC90IeA41H-Ije-30" value="country" style="ellipse;whiteSpace=wrap;html=1;align=center;rounded=1;labelBackgroundColor=none;fillColor=#B2C9AB;strokeColor=#788AA3;fontColor=#46495D;" vertex="1" parent="1">
          <mxGeometry x="898" y="-53" width="100" height="40" as="geometry" />
        </mxCell>
        <mxCell id="nKBKC8BC90IeA41H-Ije-70" style="edgeStyle=orthogonalEdgeStyle;rounded=0;orthogonalLoop=1;jettySize=auto;html=1;exitX=0.5;exitY=0;exitDx=0;exitDy=0;entryX=1;entryY=1;entryDx=0;entryDy=0;strokeColor=#788AA3;fontColor=#46495D;elbow=vertical;fillColor=#B2C9AB;" edge="1" parent="1" source="nKBKC8BC90IeA41H-Ije-31" target="nKBKC8BC90IeA41H-Ije-6">
          <mxGeometry relative="1" as="geometry" />
        </mxCell>
        <mxCell id="nKBKC8BC90IeA41H-Ije-31" value="state" style="ellipse;whiteSpace=wrap;html=1;align=center;rounded=1;labelBackgroundColor=none;fillColor=#B2C9AB;strokeColor=#788AA3;fontColor=#46495D;" vertex="1" parent="1">
          <mxGeometry x="1111" y="-64" width="100" height="40" as="geometry" />
        </mxCell>
        <mxCell id="nKBKC8BC90IeA41H-Ije-32" value="city" style="ellipse;whiteSpace=wrap;html=1;align=center;rounded=1;labelBackgroundColor=none;fillColor=#B2C9AB;strokeColor=#788AA3;fontColor=#46495D;" vertex="1" parent="1">
          <mxGeometry x="1112" y="-224" width="100" height="40" as="geometry" />
        </mxCell>
        <mxCell id="nKBKC8BC90IeA41H-Ije-57" style="edgeStyle=orthogonalEdgeStyle;rounded=0;orthogonalLoop=1;jettySize=auto;html=1;exitX=0;exitY=0.5;exitDx=0;exitDy=0;entryX=0.5;entryY=0;entryDx=0;entryDy=0;strokeColor=#788AA3;fontColor=#46495D;elbow=vertical;fillColor=#B2C9AB;" edge="1" parent="1" source="nKBKC8BC90IeA41H-Ije-33" target="nKBKC8BC90IeA41H-Ije-6">
          <mxGeometry relative="1" as="geometry" />
        </mxCell>
        <mxCell id="nKBKC8BC90IeA41H-Ije-33" value="coordinates" style="ellipse;whiteSpace=wrap;html=1;align=center;rounded=1;labelBackgroundColor=none;fillColor=#B2C9AB;strokeColor=#788AA3;fontColor=#46495D;" vertex="1" parent="1">
          <mxGeometry x="1012" y="-293" width="100" height="40" as="geometry" />
        </mxCell>
        <mxCell id="nKBKC8BC90IeA41H-Ije-58" style="edgeStyle=orthogonalEdgeStyle;rounded=0;orthogonalLoop=1;jettySize=auto;html=1;exitX=1;exitY=0.5;exitDx=0;exitDy=0;strokeColor=#788AA3;fontColor=#46495D;elbow=vertical;fillColor=#B2C9AB;" edge="1" parent="1" source="nKBKC8BC90IeA41H-Ije-35">
          <mxGeometry relative="1" as="geometry">
            <mxPoint x="913" y="-225" as="targetPoint" />
          </mxGeometry>
        </mxCell>
        <mxCell id="nKBKC8BC90IeA41H-Ije-35" value="customer_id" style="ellipse;whiteSpace=wrap;html=1;align=center;rounded=1;labelBackgroundColor=none;fillColor=#B2C9AB;strokeColor=#788AA3;fontColor=#46495D;" vertex="1" parent="1">
          <mxGeometry x="726" y="-293" width="100" height="40" as="geometry" />
        </mxCell>
        <mxCell id="nKBKC8BC90IeA41H-Ije-72" style="edgeStyle=orthogonalEdgeStyle;rounded=0;orthogonalLoop=1;jettySize=auto;html=1;exitX=1;exitY=0.5;exitDx=0;exitDy=0;entryX=0;entryY=0.5;entryDx=0;entryDy=0;strokeColor=#788AA3;fontColor=#46495D;elbow=vertical;fillColor=#B2C9AB;" edge="1" parent="1" target="nKBKC8BC90IeA41H-Ije-3">
          <mxGeometry relative="1" as="geometry">
            <mxPoint x="122" y="-745.5" as="sourcePoint" />
          </mxGeometry>
        </mxCell>
        <mxCell id="nKBKC8BC90IeA41H-Ije-71" value="product_id" style="ellipse;whiteSpace=wrap;html=1;align=center;rounded=1;labelBackgroundColor=none;fillColor=#B2C9AB;strokeColor=#788AA3;fontColor=#46495D;" vertex="1" parent="1">
          <mxGeometry x="33" y="-762.5" width="100" height="33" as="geometry" />
        </mxCell>
        <mxCell id="nKBKC8BC90IeA41H-Ije-82" style="edgeStyle=orthogonalEdgeStyle;rounded=0;orthogonalLoop=1;jettySize=auto;html=1;exitX=1;exitY=0.5;exitDx=0;exitDy=0;entryX=0;entryY=0.75;entryDx=0;entryDy=0;strokeColor=#788AA3;fontColor=#46495D;elbow=vertical;fillColor=#B2C9AB;" edge="1" parent="1" target="nKBKC8BC90IeA41H-Ije-6">
          <mxGeometry relative="1" as="geometry">
            <mxPoint x="782" y="-207" as="sourcePoint" />
          </mxGeometry>
        </mxCell>
        <mxCell id="nKBKC8BC90IeA41H-Ije-74" value="pincode" style="ellipse;whiteSpace=wrap;html=1;align=center;rounded=1;labelBackgroundColor=none;fillColor=#B2C9AB;strokeColor=#788AA3;fontColor=#46495D;" vertex="1" parent="1">
          <mxGeometry x="700" y="-227" width="100" height="40" as="geometry" />
        </mxCell>
        <mxCell id="nKBKC8BC90IeA41H-Ije-76" style="edgeStyle=orthogonalEdgeStyle;rounded=0;orthogonalLoop=1;jettySize=auto;html=1;exitX=0.5;exitY=1;exitDx=0;exitDy=0;strokeColor=#788AA3;fontColor=#46495D;elbow=vertical;fillColor=#B2C9AB;" edge="1" parent="1" source="nKBKC8BC90IeA41H-Ije-75">
          <mxGeometry relative="1" as="geometry">
            <mxPoint x="239" y="-221" as="targetPoint" />
          </mxGeometry>
        </mxCell>
        <mxCell id="nKBKC8BC90IeA41H-Ije-75" value="order_id" style="ellipse;whiteSpace=wrap;html=1;align=center;rounded=1;labelBackgroundColor=none;fillColor=#B2C9AB;strokeColor=#788AA3;fontColor=#46495D;" vertex="1" parent="1">
          <mxGeometry x="250" y="-320" width="100" height="40" as="geometry" />
        </mxCell>
        <mxCell id="nKBKC8BC90IeA41H-Ije-77" value="amount" style="ellipse;whiteSpace=wrap;html=1;align=center;rounded=1;labelBackgroundColor=none;fillColor=#B2C9AB;strokeColor=#788AA3;fontColor=#46495D;" vertex="1" parent="1">
          <mxGeometry x="1282.5" y="-404" width="100" height="40" as="geometry" />
        </mxCell>
        <mxCell id="nKBKC8BC90IeA41H-Ije-80" style="edgeStyle=orthogonalEdgeStyle;rounded=0;orthogonalLoop=1;jettySize=auto;html=1;exitX=0;exitY=0.5;exitDx=0;exitDy=0;entryX=0.5;entryY=0;entryDx=0;entryDy=0;strokeColor=#788AA3;fontColor=#46495D;elbow=vertical;fillColor=#B2C9AB;" edge="1" parent="1" source="nKBKC8BC90IeA41H-Ije-79" target="nKBKC8BC90IeA41H-Ije-5">
          <mxGeometry relative="1" as="geometry" />
        </mxCell>
        <mxCell id="nKBKC8BC90IeA41H-Ije-79" value="customer_id" style="ellipse;whiteSpace=wrap;html=1;align=center;rounded=1;labelBackgroundColor=none;fillColor=#B2C9AB;strokeColor=#788AA3;fontColor=#46495D;" vertex="1" parent="1">
          <mxGeometry x="1272.5" y="-528" width="100" height="40" as="geometry" />
        </mxCell>
        <mxCell id="nKBKC8BC90IeA41H-Ije-89" style="edgeStyle=orthogonalEdgeStyle;rounded=0;orthogonalLoop=1;jettySize=auto;html=1;exitX=1;exitY=0.5;exitDx=0;exitDy=0;entryX=0;entryY=0.75;entryDx=0;entryDy=0;strokeColor=#788AA3;fontColor=#46495D;elbow=vertical;fillColor=#B2C9AB;" edge="1" parent="1" source="nKBKC8BC90IeA41H-Ije-88" target="nKBKC8BC90IeA41H-Ije-1">
          <mxGeometry relative="1" as="geometry" />
        </mxCell>
        <mxCell id="nKBKC8BC90IeA41H-Ije-104" value="one" style="edgeLabel;html=1;align=center;verticalAlign=middle;resizable=0;points=[];strokeColor=#788AA3;fontColor=#46495D;fillColor=#B2C9AB;" vertex="1" connectable="0" parent="nKBKC8BC90IeA41H-Ije-89">
          <mxGeometry x="0.0214" y="-2" relative="1" as="geometry">
            <mxPoint y="1" as="offset" />
          </mxGeometry>
        </mxCell>
        <mxCell id="nKBKC8BC90IeA41H-Ije-90" style="edgeStyle=orthogonalEdgeStyle;rounded=0;orthogonalLoop=1;jettySize=auto;html=1;exitX=0.5;exitY=1;exitDx=0;exitDy=0;entryX=0.5;entryY=0;entryDx=0;entryDy=0;strokeColor=#788AA3;fontColor=#46495D;elbow=vertical;fillColor=#B2C9AB;" edge="1" parent="1" source="nKBKC8BC90IeA41H-Ije-88" target="nKBKC8BC90IeA41H-Ije-79">
          <mxGeometry relative="1" as="geometry" />
        </mxCell>
        <mxCell id="nKBKC8BC90IeA41H-Ije-105" value="many" style="edgeLabel;html=1;align=center;verticalAlign=middle;resizable=0;points=[];strokeColor=#788AA3;fontColor=#46495D;fillColor=#B2C9AB;" vertex="1" connectable="0" parent="nKBKC8BC90IeA41H-Ije-90">
          <mxGeometry x="-0.3767" y="-3" relative="1" as="geometry">
            <mxPoint x="-1" as="offset" />
          </mxGeometry>
        </mxCell>
        <mxCell id="nKBKC8BC90IeA41H-Ije-88" value="purchased by" style="shape=rhombus;perimeter=rhombusPerimeter;whiteSpace=wrap;html=1;align=center;strokeColor=#788AA3;fontColor=#46495D;fillColor=#FF9933;" vertex="1" parent="1">
          <mxGeometry x="903" y="-659" width="120" height="60" as="geometry" />
        </mxCell>
        <mxCell id="nKBKC8BC90IeA41H-Ije-93" style="edgeStyle=orthogonalEdgeStyle;rounded=0;orthogonalLoop=1;jettySize=auto;html=1;exitX=0.5;exitY=1;exitDx=0;exitDy=0;entryX=0.5;entryY=0;entryDx=0;entryDy=0;strokeColor=#788AA3;fontColor=#46495D;elbow=vertical;fillColor=#B2C9AB;" edge="1" parent="1" source="nKBKC8BC90IeA41H-Ije-91" target="nKBKC8BC90IeA41H-Ije-35">
          <mxGeometry relative="1" as="geometry" />
        </mxCell>
        <mxCell id="nKBKC8BC90IeA41H-Ije-107" value="one" style="edgeLabel;html=1;align=center;verticalAlign=middle;resizable=0;points=[];strokeColor=#788AA3;fontColor=#46495D;fillColor=#B2C9AB;" vertex="1" connectable="0" parent="nKBKC8BC90IeA41H-Ije-93">
          <mxGeometry x="-0.6456" y="2" relative="1" as="geometry">
            <mxPoint y="-1" as="offset" />
          </mxGeometry>
        </mxCell>
        <mxCell id="nKBKC8BC90IeA41H-Ije-119" value="many" style="edgeLabel;html=1;align=center;verticalAlign=middle;resizable=0;points=[];strokeColor=#788AA3;fontColor=#46495D;fillColor=#B2C9AB;" vertex="1" connectable="0" parent="nKBKC8BC90IeA41H-Ije-93">
          <mxGeometry x="-0.593" y="4" relative="1" as="geometry">
            <mxPoint as="offset" />
          </mxGeometry>
        </mxCell>
        <mxCell id="nKBKC8BC90IeA41H-Ije-91" value="customer_address" style="shape=rhombus;perimeter=rhombusPerimeter;whiteSpace=wrap;html=1;align=center;strokeColor=#788AA3;fontColor=#46495D;fillColor=#FF9933;" vertex="1" parent="1">
          <mxGeometry x="726" y="-464" width="172" height="90" as="geometry" />
        </mxCell>
        <mxCell id="nKBKC8BC90IeA41H-Ije-117" style="edgeStyle=orthogonalEdgeStyle;rounded=0;orthogonalLoop=1;jettySize=auto;html=1;exitX=0.5;exitY=0;exitDx=0;exitDy=0;entryX=1;entryY=0.5;entryDx=0;entryDy=0;strokeColor=#788AA3;fontColor=#46495D;elbow=vertical;fillColor=#B2C9AB;" edge="1" parent="1" source="nKBKC8BC90IeA41H-Ije-94" target="nKBKC8BC90IeA41H-Ije-3">
          <mxGeometry relative="1" as="geometry" />
        </mxCell>
        <mxCell id="nKBKC8BC90IeA41H-Ije-118" value="one" style="edgeLabel;html=1;align=center;verticalAlign=middle;resizable=0;points=[];strokeColor=#788AA3;fontColor=#46495D;fillColor=#B2C9AB;" vertex="1" connectable="0" parent="nKBKC8BC90IeA41H-Ije-117">
          <mxGeometry x="-0.3092" y="1" relative="1" as="geometry">
            <mxPoint as="offset" />
          </mxGeometry>
        </mxCell>
        <mxCell id="nKBKC8BC90IeA41H-Ije-94" value="product_segment" style="shape=rhombus;perimeter=rhombusPerimeter;whiteSpace=wrap;html=1;align=center;strokeColor=#788AA3;fontColor=#46495D;fillColor=#FF9933;" vertex="1" parent="1">
          <mxGeometry x="385" y="-707" width="172" height="90" as="geometry" />
        </mxCell>
        <mxCell id="nKBKC8BC90IeA41H-Ije-99" style="edgeStyle=orthogonalEdgeStyle;rounded=0;orthogonalLoop=1;jettySize=auto;html=1;exitX=1;exitY=0.5;exitDx=0;exitDy=0;entryX=0;entryY=0.5;entryDx=0;entryDy=0;strokeColor=#788AA3;fontColor=#46495D;elbow=vertical;fillColor=#B2C9AB;" edge="1" parent="1" source="nKBKC8BC90IeA41H-Ije-97" target="nKBKC8BC90IeA41H-Ije-20">
          <mxGeometry relative="1" as="geometry" />
        </mxCell>
        <mxCell id="nKBKC8BC90IeA41H-Ije-113" value="many" style="edgeLabel;html=1;align=center;verticalAlign=middle;resizable=0;points=[];strokeColor=#788AA3;fontColor=#46495D;fillColor=#B2C9AB;" vertex="1" connectable="0" parent="nKBKC8BC90IeA41H-Ije-99">
          <mxGeometry x="-0.1366" y="2" relative="1" as="geometry">
            <mxPoint as="offset" />
          </mxGeometry>
        </mxCell>
        <mxCell id="nKBKC8BC90IeA41H-Ije-97" value="description" style="shape=rhombus;perimeter=rhombusPerimeter;whiteSpace=wrap;html=1;align=center;strokeColor=#788AA3;fontColor=#46495D;fillColor=#FF9933;" vertex="1" parent="1">
          <mxGeometry x="606" y="-649" width="120" height="60" as="geometry" />
        </mxCell>
        <mxCell id="nKBKC8BC90IeA41H-Ije-110" style="edgeStyle=orthogonalEdgeStyle;rounded=0;orthogonalLoop=1;jettySize=auto;html=1;exitX=0.5;exitY=1;exitDx=0;exitDy=0;entryX=1;entryY=0.5;entryDx=0;entryDy=0;strokeColor=#788AA3;fontColor=#46495D;elbow=vertical;fillColor=#B2C9AB;" edge="1" parent="1" source="nKBKC8BC90IeA41H-Ije-101" target="nKBKC8BC90IeA41H-Ije-75">
          <mxGeometry relative="1" as="geometry" />
        </mxCell>
        <mxCell id="nKBKC8BC90IeA41H-Ije-111" value="many" style="edgeLabel;html=1;align=center;verticalAlign=middle;resizable=0;points=[];strokeColor=#788AA3;fontColor=#46495D;fillColor=#B2C9AB;" vertex="1" connectable="0" parent="nKBKC8BC90IeA41H-Ije-110">
          <mxGeometry x="-0.6245" y="1" relative="1" as="geometry">
            <mxPoint as="offset" />
          </mxGeometry>
        </mxCell>
        <mxCell id="nKBKC8BC90IeA41H-Ije-101" value="payment_details" style="shape=rhombus;perimeter=rhombusPerimeter;whiteSpace=wrap;html=1;align=center;strokeColor=#788AA3;fontColor=#46495D;fillColor=#FF9933;" vertex="1" parent="1">
          <mxGeometry x="385" y="-455" width="120" height="60" as="geometry" />
        </mxCell>
      </root>
    </mxGraphModel>
  </diagram>
</mxfile>
